<svg width="223" height="251" viewBox="0 0 223 251" fill="none" xmlns="http://www.w3.org/2000/svg">
<path d="M98.5873 0.286097C121.279 7.87161 137.393 24.7041 155.992 38.1383C174.59 51.5725 190.059 67.2923 201.413 84.2988C212.768 101.305 219.761 119.226 221.947 136.923C224.133 154.62 221.465 171.705 214.113 187.094C206.76 202.482 194.884 215.837 179.238 226.309C163.593 236.781 144.52 244.142 123.233 247.924C101.946 251.705 78.9093 251.825 55.5877 248.275C32.266 244.725 22.1722 240.648 0.767969 230.368L25.0782 217.248L43.5013 209.464L17.2601 183.255L62.9074 188.246L51.1898 151.818L83.0761 158.125L56.2809 117.618L90.4754 125.364L75.6875 92.2133L103.868 96.8307L70.0993 60.6801L107.523 67.687L93.0226 39.9254L112.614 33.4876L98.5873 0.286097Z" fill="url(#paint0_linear_348_3386)"/>
<defs>
<linearGradient id="paint0_linear_348_3386" x1="138.201" y1="34.9519" x2="52.4577" y2="234.899" gradientUnits="userSpaceOnUse">
<stop stop-color="white"/>
<stop offset="0.927083" stop-color="white"/>
</linearGradient>
</defs>
</svg>
