<svg width="32" height="32" viewBox="0 0 32 32" fill="none" xmlns="http://www.w3.org/2000/svg">
<mask id="mask0_316_3632" style="mask-type:alpha" maskUnits="userSpaceOnUse" x="0" y="0" width="32" height="32">
<rect width="32" height="32" fill="#C4C4C4"/>
</mask>
<g mask="url(#mask0_316_3632)">
<path d="M15.9998 21.1666L22.6334 14.5666L20.2662 12.2666L15.9998 16.5338L11.7334 12.2666L9.3662 14.5666L15.9998 21.1666ZM15.9998 30.2666C13.9998 30.2666 12.1275 29.8999 10.383 29.1666C8.63847 28.4333 7.12726 27.4279 5.8494 26.1506C4.57206 24.8727 3.56673 23.3615 2.8334 21.617C2.10007 19.8725 1.7334 18.0002 1.7334 16.0002C1.7334 14.0002 2.10007 12.1335 2.8334 10.4002C3.56673 8.66686 4.57206 7.15566 5.8494 5.8666C7.12726 4.57806 8.63847 3.56153 10.383 2.817C12.1275 2.07246 13.9998 1.7002 15.9998 1.7002C17.9998 1.7002 19.8665 2.07246 21.5998 2.817C23.3331 3.56153 24.8443 4.57273 26.1334 5.8506C27.4219 7.12793 28.4385 8.63326 29.183 10.3666C29.9275 12.0999 30.2998 13.9778 30.2998 16.0002C30.2998 18.0002 29.9275 19.8725 29.183 21.617C28.4385 23.3615 27.4219 24.8727 26.1334 26.1506C24.8443 27.4279 23.3331 28.4333 21.5998 29.1666C19.8665 29.8999 17.9998 30.2666 15.9998 30.2666ZM15.9998 26.7666C19.0441 26.7666 21.5995 25.7389 23.6662 23.6834C25.7329 21.6279 26.7662 19.0669 26.7662 16.0002C26.7662 12.9335 25.7329 10.3725 23.6662 8.317C21.5995 6.26153 19.0441 5.2338 15.9998 5.2338C12.9555 5.2338 10.4001 6.26153 8.3334 8.317C6.26673 10.3725 5.2334 12.9335 5.2334 16.0002C5.2334 19.0669 6.26673 21.6279 8.3334 23.6834C10.4001 25.7389 12.9555 26.7666 15.9998 26.7666Z" fill="#7D5700"/>
</g>
</svg>
