<svg width="92" height="92" viewBox="0 0 92 92" fill="none" xmlns="http://www.w3.org/2000/svg">
<path d="M92 46C92 52.0541 88.1604 57.3018 85.9878 62.5633C83.7196 68.016 82.6401 74.4254 78.5273 78.5253C74.4144 82.6387 68.0196 83.7184 62.5677 85.9869C57.307 88.1735 52.06 92 46.0068 92C39.9537 92 34.7067 88.1598 29.446 85.9869C23.9941 83.7184 17.5856 82.6387 13.4864 78.5253C9.37353 74.4118 8.29407 68.016 6.02584 62.5633C3.8396 57.3018 0 52.0541 0 46C0 39.9459 3.8396 34.6982 6.01218 29.4367C8.28041 23.984 9.35987 17.5746 13.4727 13.4747C17.5856 9.36126 23.9804 8.28164 29.4323 6.01307C34.693 3.8265 39.94 0 45.9932 0C52.0463 0 57.2933 3.84017 62.554 6.01307C68.0059 8.28164 74.4144 9.36126 78.5136 13.4747C82.6265 17.5882 83.7059 23.984 85.9742 29.4367C88.1741 34.6982 92 39.9459 92 46Z" fill="#FA8B40"/>
<mask id="mask0_316_3681" style="mask-type:alpha" maskUnits="userSpaceOnUse" x="20" y="20" width="52" height="52">
<rect x="20.4443" y="20.4446" width="51.1111" height="51.1111" fill="#C4C4C4"/>
</mask>
<g mask="url(#mask0_316_3681)">
<path d="M54.9439 49.3543C55.8315 49.3543 56.6122 49.017 57.286 48.3423C57.9607 47.6685 58.298 46.8878 58.298 46.0001C58.298 45.0776 57.9607 44.2879 57.286 43.6311C56.6122 42.9744 55.8315 42.646 54.9439 42.646C54.0562 42.646 53.2755 42.9744 52.6017 43.6311C51.927 44.2879 51.5897 45.0776 51.5897 46.0001C51.5897 46.8878 51.927 47.6685 52.6017 48.3423C53.2755 49.017 54.0562 49.3543 54.9439 49.3543ZM25.9805 66.0191V25.9812H66.0184V36.896H61.3327V30.6668H30.6661V61.3335H61.3327V55.1043H66.0184V66.0191H25.9805ZM44.7216 35.8316H68.2545V56.1687H44.7216V35.8316Z" fill="black"/>
</g>
</svg>
