<svg width="1229" height="1212" viewBox="0 0 1229 1212" fill="none" xmlns="http://www.w3.org/2000/svg">
<path d="M344.134 910.012C281.994 861.194 247.453 776.047 275.602 701.335C208.992 662.649 153.545 534.366 246.752 496.206C302.124 470.879 210.524 410.432 243.904 361.888C261.04 282.65 369.786 271.97 433.008 305.234C495.08 331.995 546.449 239.771 615.378 261.453C700.02 261.422 783.156 304.782 826.173 373.514C882.827 402.115 958.595 368.346 1006.99 419.19C1097.93 480.157 1114.38 611.193 1046.17 694.914C1012.55 755.115 908.865 768.238 946.359 848.891C958.375 942.066 856.485 1016.74 763.67 1011.41C698.039 1009.2 635.311 980.816 587.415 939.564C511.366 986.544 407.838 963.966 344.133 910.011L344.134 910.012Z" fill="#FFB4A9"/>
</svg>
