<svg width="92" height="92" viewBox="0 0 92 92" fill="none" xmlns="http://www.w3.org/2000/svg">
<path d="M92 46C92 52.0541 88.1604 57.3018 85.9878 62.5633C83.7196 68.016 82.6401 74.4254 78.5273 78.5253C74.4144 82.6387 68.0196 83.7184 62.5677 85.9869C57.307 88.1735 52.06 92 46.0068 92C39.9537 92 34.7067 88.1598 29.446 85.9869C23.9941 83.7184 17.5856 82.6387 13.4864 78.5253C9.37353 74.4118 8.29407 68.016 6.02584 62.5633C3.8396 57.3018 0 52.0541 0 46C0 39.9459 3.8396 34.6982 6.01218 29.4367C8.28041 23.984 9.35987 17.5746 13.4727 13.4747C17.5856 9.36126 23.9804 8.28164 29.4323 6.01307C34.693 3.8265 39.94 0 45.9932 0C52.0463 0 57.2933 3.84017 62.554 6.01307C68.0059 8.28164 74.4144 9.36126 78.5136 13.4747C82.6265 17.5882 83.7059 23.984 85.9742 29.4367C88.1741 34.6982 92 39.9459 92 46Z" fill="#FA8B40"/>
<mask id="mask0_316_3691" style="mask-type:alpha" maskUnits="userSpaceOnUse" x="20" y="20" width="52" height="52">
<rect x="20.4443" y="20.4446" width="51.1111" height="51.1111" fill="#C4C4C4"/>
</mask>
<g mask="url(#mask0_316_3691)">
<path d="M28.8032 56.8613V61.0677H63.1958V56.8613H28.8032ZM23.2129 66.658V31.6788H32.9023C32.76 31.3594 32.6357 30.9867 32.5292 30.5608C32.4227 30.1348 32.3694 29.7264 32.3694 29.3354C32.3694 27.4545 33.0352 25.8488 34.3666 24.5182C35.6972 23.1867 37.3034 22.521 39.1851 22.521C40.3206 22.521 41.3765 22.8051 42.3527 23.3733C43.3289 23.9406 44.1186 24.6681 44.7217 25.5557L45.9995 27.3663L47.3309 25.5557C47.9698 24.6332 48.7684 23.8967 49.7268 23.3464C50.6851 22.7961 51.6967 22.521 52.7615 22.521C54.6782 22.521 56.3018 23.1778 57.6324 24.4913C58.9638 25.804 59.6296 27.4187 59.6296 29.3354C59.6296 29.7264 59.5938 30.117 59.5222 30.5071C59.4515 30.8973 59.3276 31.2878 59.1504 31.6788H68.8398V66.658H23.2129ZM28.8032 49.5677H63.1958V37.3215H52.5481L56.7546 43.3386L53.2407 45.8404L45.9995 35.4048L38.7583 45.8404L35.2444 43.3386L39.5569 37.3215H28.8032V49.5677ZM39.1851 31.8909C39.9305 31.8909 40.5515 31.6426 41.0481 31.146C41.5447 30.6494 41.7931 30.0458 41.7931 29.3354C41.7931 28.6258 41.5447 28.0137 41.0481 27.4992C40.5515 26.9847 39.9305 26.7274 39.1851 26.7274C38.4747 26.7274 37.8711 26.9847 37.3745 27.4992C36.8779 28.0137 36.6296 28.6258 36.6296 29.3354C36.6296 30.0458 36.8779 30.6494 37.3745 31.146C37.8711 31.6426 38.4747 31.8909 39.1851 31.8909ZM52.7615 31.8909C53.5069 31.8909 54.1279 31.6426 54.6245 31.146C55.1211 30.6494 55.3694 30.0458 55.3694 29.3354C55.3694 28.6258 55.1211 28.0137 54.6245 27.4992C54.1279 26.9847 53.5069 26.7274 52.7615 26.7274C52.0511 26.7274 51.4475 26.9847 50.9509 27.4992C50.4543 28.0137 50.2059 28.6258 50.2059 29.3354C50.2059 30.0458 50.4543 30.6494 50.9509 31.146C51.4475 31.6426 52.0511 31.8909 52.7615 31.8909Z" fill="black"/>
</g>
</svg>
