<svg width="33" height="33" viewBox="0 0 33 33" fill="none" xmlns="http://www.w3.org/2000/svg">
<path d="M16.2288 2.68164C19.8515 2.68164 20.3035 2.69505 21.7248 2.7621C23.1448 2.82915 24.1115 3.05309 24.9622 3.38565C25.8422 3.72626 26.5835 4.18756 27.3248 4.9318C28.0028 5.60214 28.5274 6.41302 28.8622 7.308C29.1915 8.1622 29.4155 9.13575 29.4822 10.5639C29.5448 11.9934 29.5622 12.448 29.5622 16.0914C29.5622 19.7348 29.5488 20.1894 29.4822 21.6189C29.4155 23.047 29.1915 24.0192 28.8622 24.8748C28.5284 25.7702 28.0037 26.5813 27.3248 27.251C26.6581 27.9326 25.8519 28.4602 24.9622 28.7971C24.1128 29.1283 23.1448 29.3536 21.7248 29.4207C20.3035 29.4837 19.8515 29.5011 16.2288 29.5011C12.6062 29.5011 12.1542 29.4877 10.7328 29.4207C9.31284 29.3536 8.34617 29.1283 7.49551 28.7971C6.60528 28.4612 5.79888 27.9335 5.13284 27.251C4.45472 26.5807 3.93008 25.7698 3.59551 24.8748C3.26484 24.0206 3.04217 23.047 2.97551 21.6189C2.91284 20.1894 2.89551 19.7348 2.89551 16.0914C2.89551 12.448 2.90884 11.9934 2.97551 10.5639C3.04217 9.13441 3.26484 8.16355 3.59551 7.308C3.92916 6.41247 4.45391 5.60137 5.13284 4.9318C5.79907 4.24955 6.60541 3.72187 7.49551 3.38565C8.34617 3.05309 9.31151 2.82915 10.7328 2.7621C12.1542 2.69907 12.6062 2.68164 16.2288 2.68164ZM16.2288 9.38651C14.4607 9.38651 12.765 10.0929 11.5148 11.3503C10.2646 12.6077 9.56217 14.3131 9.56217 16.0914C9.56217 17.8696 10.2646 19.575 11.5148 20.8325C12.765 22.0899 14.4607 22.7963 16.2288 22.7963C17.997 22.7963 19.6926 22.0899 20.9429 20.8325C22.1931 19.575 22.8955 17.8696 22.8955 16.0914C22.8955 14.3131 22.1931 12.6077 20.9429 11.3503C19.6926 10.0929 17.997 9.38651 16.2288 9.38651V9.38651ZM24.8955 9.05127C24.8955 8.60671 24.7199 8.18036 24.4074 7.86601C24.0948 7.55165 23.6709 7.37505 23.2288 7.37505C22.7868 7.37505 22.3629 7.55165 22.0503 7.86601C21.7378 8.18036 21.5622 8.60671 21.5622 9.05127C21.5622 9.49583 21.7378 9.92218 22.0503 10.2365C22.3629 10.5509 22.7868 10.7275 23.2288 10.7275C23.6709 10.7275 24.0948 10.5509 24.4074 10.2365C24.7199 9.92218 24.8955 9.49583 24.8955 9.05127ZM16.2288 12.0685C17.2897 12.0685 18.3071 12.4923 19.0573 13.2468C19.8074 14.0012 20.2288 15.0244 20.2288 16.0914C20.2288 17.1583 19.8074 18.1816 19.0573 18.936C18.3071 19.6905 17.2897 20.1143 16.2288 20.1143C15.168 20.1143 14.1506 19.6905 13.4004 18.936C12.6503 18.1816 12.2288 17.1583 12.2288 16.0914C12.2288 15.0244 12.6503 14.0012 13.4004 13.2468C14.1506 12.4923 15.168 12.0685 16.2288 12.0685V12.0685Z" fill="white"/>
</svg>
