<svg width="222" height="80" viewBox="0 0 222 80" fill="none" xmlns="http://www.w3.org/2000/svg">
<path d="M76.1803 59.5954C76.1803 58.1946 76.3599 56.9553 76.7191 55.8777C77.0962 54.8002 77.5991 53.8124 78.2277 52.9144C78.8563 52.0164 79.5837 51.1723 80.4098 50.3821C81.236 49.6098 82.107 48.8196 83.023 48.0114V42.2193C82.4662 42.7761 81.8107 43.243 81.0564 43.6202C80.32 44.0153 79.4669 44.2129 78.4971 44.2129C77.4195 44.2129 76.4676 43.9974 75.6415 43.5663C74.8333 43.1353 74.1508 42.5516 73.5941 41.8152C73.0373 41.0609 72.6153 40.1809 72.3279 39.1752C72.0585 38.1515 71.9238 37.0559 71.9238 35.8885C71.9238 33.5897 72.292 31.5243 73.0284 29.6924C73.7647 27.8605 74.7435 26.307 75.9648 25.0318C77.186 23.7387 78.5779 22.7509 80.1404 22.0685C81.7209 21.386 83.3552 21.0448 85.0434 21.0448C85.7978 21.0448 86.4084 21.2513 86.8753 21.6644C87.3423 22.0595 87.5758 22.6252 87.5758 23.3616C87.5758 23.8285 87.5219 24.1608 87.4141 24.3583C87.3243 24.5379 87.1447 24.6277 86.8753 24.6277C86.6239 24.6277 86.3635 24.6098 86.0941 24.5739C85.8247 24.5379 85.5463 24.52 85.259 24.52C84.2173 24.52 83.1577 24.7535 82.0801 25.2204C81.0025 25.6694 80.0237 26.3698 79.1437 27.3217C78.2816 28.2556 77.5722 29.4499 77.0154 30.9047C76.4587 32.3415 76.1803 34.0566 76.1803 36.0502C76.1803 37.4869 76.4587 38.6004 77.0154 39.3907C77.5722 40.1809 78.3355 40.576 79.3053 40.576C79.862 40.576 80.347 40.4144 80.76 40.0911C81.1731 39.7499 81.5323 39.3278 81.8376 38.8249C82.1429 38.3221 82.3854 37.7743 82.565 37.1816C82.7625 36.571 82.9152 35.9873 83.023 35.4305V29.2075C83.023 28.6867 82.9781 28.3095 82.8883 28.076C82.8164 27.8425 82.7805 27.627 82.7805 27.4295C82.7805 27.1601 82.9242 26.9356 83.2115 26.756C83.4989 26.5764 83.8401 26.4866 84.2353 26.4866C85.1512 26.4866 85.8696 26.729 86.3904 27.214C86.9292 27.6809 87.1986 28.2556 87.1986 28.9381V43.9435C88.2044 42.83 89.1203 41.5638 89.9465 40.145C90.7906 38.7262 91.491 37.0649 92.0477 35.1612C92.2273 34.5864 92.4249 34.1734 92.6404 33.9219C92.8559 33.6525 93.1074 33.5178 93.3947 33.5178C93.6102 33.5178 93.8258 33.5897 94.0413 33.7333C94.2748 33.8591 94.4813 34.0297 94.6609 34.2452C94.8585 34.4607 95.0111 34.7032 95.1189 34.9726C95.2446 35.242 95.3074 35.5114 95.3074 35.7808C95.3074 35.8167 95.3074 35.8885 95.3074 35.9963C95.3074 36.104 95.2895 36.2118 95.2536 36.3196C94.7866 37.918 94.2388 39.3368 93.6102 40.576C92.9996 41.7973 92.3441 42.8928 91.6437 43.8627C90.9432 44.8325 90.2159 45.6946 89.4615 46.4489C88.7072 47.2211 87.9529 47.9305 87.1986 48.5771V58.1137C87.1986 59.5685 87.028 60.7897 86.6868 61.7775C86.3635 62.7833 85.9324 63.5915 85.3937 64.2021C84.8549 64.8307 84.2353 65.2797 83.5348 65.5491C82.8523 65.8185 82.1609 65.9532 81.4605 65.9532C80.6882 65.9532 79.9788 65.7826 79.3322 65.4413C78.6857 65.118 78.1289 64.6691 77.662 64.0943C77.195 63.5196 76.8268 62.8461 76.5574 62.0739C76.306 61.3016 76.1803 60.4754 76.1803 59.5954ZM81.4605 62.478C81.9095 62.478 82.2417 62.2984 82.4572 61.9392C82.6728 61.58 82.8164 61.1579 82.8883 60.673C82.9781 60.2061 83.023 59.7301 83.023 59.2452C83.023 58.7603 83.023 58.3831 83.023 58.1137V52.214C82.125 53.1119 81.3976 54.1267 80.8409 55.2581C80.3021 56.3896 80.0327 57.7815 80.0327 59.4338C80.0327 60.2959 80.1584 61.0142 80.4098 61.589C80.6613 62.1816 81.0115 62.478 81.4605 62.478Z" fill="#FF7A20"/>
<path d="M95.6307 59.5954C95.6307 58.1946 95.8103 56.9553 96.1695 55.8777C96.5467 54.8002 97.0495 53.8124 97.6781 52.9144C98.3067 52.0164 99.0341 51.1723 99.8602 50.3821C100.686 49.6098 101.557 48.8196 102.473 48.0114V42.2193C101.917 42.7761 101.261 43.243 100.507 43.6202C99.7705 44.0153 98.9174 44.2129 97.9475 44.2129C96.8699 44.2129 95.9181 43.9974 95.0919 43.5663C94.2837 43.1353 93.6013 42.5516 93.0445 41.8152C92.4878 41.0609 92.0657 40.1809 91.7784 39.1752C91.509 38.1515 91.3743 37.0559 91.3743 35.8885C91.3743 33.5897 91.7424 31.5243 92.4788 29.6924C93.2151 27.8605 94.1939 26.307 95.4152 25.0318C96.6365 23.7387 98.0284 22.7509 99.5909 22.0685C101.171 21.386 102.806 21.0448 104.494 21.0448C105.248 21.0448 105.859 21.2513 106.326 21.6644C106.793 22.0595 107.026 22.6252 107.026 23.3616C107.026 23.8285 106.972 24.1608 106.865 24.3583C106.775 24.5379 106.595 24.6277 106.326 24.6277C106.074 24.6277 105.814 24.6098 105.545 24.5739C105.275 24.5379 104.997 24.52 104.709 24.52C103.668 24.52 102.608 24.7535 101.531 25.2204C100.453 25.6694 99.4741 26.3698 98.5941 27.3217C97.732 28.2556 97.0226 29.4499 96.4659 30.9047C95.9091 32.3415 95.6307 34.0566 95.6307 36.0502C95.6307 37.4869 95.9091 38.6004 96.4659 39.3907C97.0226 40.1809 97.7859 40.576 98.7557 40.576C99.3125 40.576 99.7974 40.4144 100.21 40.0911C100.624 39.7499 100.983 39.3278 101.288 38.8249C101.593 38.3221 101.836 37.7743 102.015 37.1816C102.213 36.571 102.366 35.9873 102.473 35.4305V29.2075C102.473 28.6867 102.428 28.3095 102.339 28.076C102.267 27.8425 102.231 27.627 102.231 27.4295C102.231 27.1601 102.375 26.9356 102.662 26.756C102.949 26.5764 103.291 26.4866 103.686 26.4866C104.602 26.4866 105.32 26.729 105.841 27.214C106.38 27.6809 106.649 28.2556 106.649 28.9381V43.9435C107.655 42.83 108.571 41.5638 109.397 40.145C110.241 38.7262 110.941 37.0649 111.498 35.1612C111.678 34.5864 111.875 34.1734 112.091 33.9219C112.306 33.6525 112.558 33.5178 112.845 33.5178C113.061 33.5178 113.276 33.5897 113.492 33.7333C113.725 33.8591 113.932 34.0297 114.111 34.2452C114.309 34.4607 114.462 34.7032 114.569 34.9726C114.695 35.242 114.758 35.5114 114.758 35.7808C114.758 35.8167 114.758 35.8885 114.758 35.9963C114.758 36.104 114.74 36.2118 114.704 36.3196C114.237 37.918 113.689 39.3368 113.061 40.576C112.45 41.7973 111.795 42.8928 111.094 43.8627C110.394 44.8325 109.666 45.6946 108.912 46.4489C108.158 47.2211 107.403 47.9305 106.649 48.5771V58.1137C106.649 59.5685 106.478 60.7897 106.137 61.7775C105.814 62.7833 105.383 63.5915 104.844 64.2021C104.305 64.8307 103.686 65.2797 102.985 65.5491C102.303 65.8185 101.611 65.9532 100.911 65.9532C100.139 65.9532 99.4292 65.7826 98.7827 65.4413C98.1361 65.118 97.5794 64.6691 97.1124 64.0943C96.6455 63.5196 96.2773 62.8461 96.0079 62.0739C95.7564 61.3016 95.6307 60.4754 95.6307 59.5954ZM100.911 62.478C101.36 62.478 101.692 62.2984 101.908 61.9392C102.123 61.58 102.267 61.1579 102.339 60.673C102.428 60.2061 102.473 59.7301 102.473 59.2452C102.473 58.7603 102.473 58.3831 102.473 58.1137V52.214C101.575 53.1119 100.848 54.1267 100.291 55.2581C99.7525 56.3896 99.4831 57.7815 99.4831 59.4338C99.4831 60.2959 99.6088 61.0142 99.8602 61.589C100.112 62.1816 100.462 62.478 100.911 62.478Z" fill="#FF7A20"/>
<path d="M120.577 44.7517C119.356 44.7517 118.17 44.5272 117.021 44.0782C115.871 43.6292 114.848 42.9647 113.95 42.0846C113.07 41.2046 112.36 40.118 111.821 38.8249C111.301 37.5318 111.04 36.0322 111.04 34.326C111.04 32.7456 111.265 31.192 111.714 29.6655C112.163 28.1389 112.782 26.7829 113.573 25.5976C114.363 24.3943 115.306 23.4244 116.401 22.6881C117.515 21.9517 118.727 21.5836 120.038 21.5836C120.99 21.5836 121.798 21.7811 122.463 22.1762C123.127 22.5534 123.666 23.0203 124.079 23.5771C124.492 24.1159 124.788 24.6996 124.968 25.3282C125.166 25.9568 125.264 26.5135 125.264 26.9984C125.264 27.3576 125.166 27.6809 124.968 27.9683C124.788 28.2556 124.564 28.4981 124.295 28.6956C124.025 28.8932 123.729 29.0458 123.406 29.1536C123.082 29.2434 122.795 29.2793 122.543 29.2614C122.292 29.2434 122.085 29.1536 121.924 28.992C121.78 28.8303 121.735 28.5879 121.789 28.2646C121.717 28.0311 121.645 27.7438 121.574 27.4025C121.52 27.0613 121.412 26.738 121.25 26.4327C121.107 26.1094 120.9 25.84 120.631 25.6245C120.361 25.391 119.993 25.2743 119.526 25.2743C119.023 25.2743 118.529 25.5168 118.045 26.0017C117.578 26.4686 117.156 27.1152 116.778 27.9413C116.419 28.7675 116.123 29.7283 115.889 30.8239C115.674 31.9194 115.566 33.0868 115.566 34.326C115.566 35.4216 115.701 36.3914 115.97 37.2355C116.258 38.0796 116.653 38.789 117.156 39.3637C117.658 39.9384 118.251 40.3785 118.934 40.6838C119.634 40.9711 120.388 41.1148 121.196 41.1148C122.274 41.1148 123.208 40.9173 123.998 40.5221C124.806 40.1091 125.489 39.5703 126.046 38.9058C126.602 38.2413 127.051 37.4959 127.393 36.6698C127.734 35.8436 127.985 35.0085 128.147 34.1644C128.273 33.5538 128.524 33.1497 128.901 32.9521C129.296 32.7366 129.691 32.6827 130.087 32.7905C130.5 32.8982 130.85 33.1317 131.137 33.4909C131.443 33.8321 131.568 34.2452 131.514 34.7301C131.443 35.2869 131.308 35.9244 131.11 36.6428C130.931 37.3612 130.661 38.0886 130.302 38.8249C129.943 39.5613 129.485 40.2887 128.928 41.0071C128.389 41.7075 127.725 42.3361 126.935 42.8928C126.144 43.4496 125.219 43.8986 124.16 44.2398C123.118 44.5811 121.924 44.7517 120.577 44.7517Z" fill="#FF7A20"/>
<path d="M140.835 27.1601C140.835 28.1838 140.656 29.2344 140.297 30.312C139.955 31.3896 139.435 32.4133 138.734 33.3831C138.052 34.335 137.199 35.1971 136.175 35.9693C135.169 36.7237 134.002 37.2984 132.673 37.6935C132.852 38.1604 133.086 38.6094 133.373 39.0405C133.678 39.4535 134.038 39.8127 134.451 40.118C134.864 40.4234 135.34 40.6658 135.879 40.8454C136.435 41.025 137.073 41.1148 137.791 41.1148C138.869 41.1148 139.794 40.9173 140.566 40.5221C141.338 40.1091 141.985 39.5703 142.506 38.9058C143.045 38.2413 143.476 37.4959 143.799 36.6698C144.122 35.8436 144.365 35.0085 144.526 34.1644C144.652 33.5538 144.903 33.1497 145.281 32.9521C145.676 32.7366 146.071 32.6827 146.466 32.7905C146.879 32.8982 147.229 33.1317 147.516 33.4909C147.822 33.8321 147.948 34.2452 147.894 34.7301C147.822 35.2869 147.696 35.9244 147.516 36.6428C147.355 37.3612 147.103 38.0886 146.762 38.8249C146.421 39.5613 145.981 40.2887 145.442 41.0071C144.921 41.7075 144.275 42.3361 143.502 42.8928C142.73 43.4496 141.823 43.8986 140.782 44.2398C139.74 44.5811 138.546 44.7517 137.199 44.7517C135.941 44.7517 134.72 44.5002 133.535 43.9974C132.367 43.5124 131.326 42.812 130.41 41.8961C129.512 40.9622 128.784 39.8217 128.228 38.4747C127.689 37.1098 127.42 35.5652 127.42 33.8411C127.42 32.099 127.662 30.4826 128.147 28.992C128.632 27.4833 129.269 26.1813 130.06 25.0857C130.85 23.9902 131.748 23.1371 132.754 22.5265C133.759 21.8979 134.792 21.5836 135.852 21.5836C136.624 21.5836 137.315 21.7183 137.926 21.9877C138.555 22.2571 139.084 22.6432 139.515 23.1461C139.946 23.631 140.27 24.2147 140.485 24.8971C140.719 25.5796 140.835 26.3339 140.835 27.1601ZM131.945 33.6795C131.945 33.8411 131.954 34.0027 131.972 34.1644C131.99 34.326 131.999 34.4966 131.999 34.6762C132.682 34.353 133.301 33.9399 133.858 33.437C134.415 32.9341 134.891 32.3594 135.286 31.7129C135.681 31.0663 135.986 30.3659 136.202 29.6116C136.417 28.8393 136.525 28.0401 136.525 27.214C136.525 26.6033 136.417 26.1274 136.202 25.7862C136.004 25.4449 135.726 25.2743 135.367 25.2743C134.918 25.2743 134.514 25.427 134.154 25.7323C133.813 26.0376 133.508 26.4417 133.238 26.9446C132.987 27.4295 132.772 27.9862 132.592 28.6148C132.43 29.2254 132.296 29.8451 132.188 30.4737C132.08 31.1022 132.008 31.7039 131.972 32.2786C131.936 32.8354 131.927 33.3023 131.945 33.6795Z" fill="#FF7A20"/>
<path d="M148.702 26.8907C148.899 26.5135 149.088 26.0106 149.268 25.3821C149.465 24.7355 149.645 24.0261 149.806 23.2538C149.986 22.4816 150.148 21.6734 150.291 20.8293C150.435 19.9851 150.561 19.159 150.668 18.3508C150.776 17.5426 150.857 16.7883 150.911 16.0879C150.983 15.3695 151.019 14.7589 151.019 14.256C151.019 12.4241 150.884 11.0861 150.615 10.242C150.345 9.3799 149.986 8.94887 149.537 8.94887C149.393 8.94887 149.268 9.0207 149.16 9.16438C149.052 9.30806 148.962 9.49664 148.89 9.73012C148.819 9.94563 148.765 10.1881 148.729 10.4575C148.711 10.7089 148.702 10.9424 148.702 11.1579V26.8907ZM156.541 35.215C156.649 34.6762 156.811 34.2901 157.026 34.0566C157.26 33.8052 157.502 33.6705 157.754 33.6525C158.023 33.6166 158.292 33.6795 158.562 33.8411C158.831 33.9848 159.065 34.1823 159.262 34.4338C159.46 34.6852 159.603 34.9726 159.693 35.2958C159.801 35.6012 159.819 35.9065 159.747 36.2118C159.496 36.9481 159.136 37.8102 158.67 38.798C158.203 39.7858 157.61 40.7197 156.891 41.5997C156.173 42.4798 155.329 43.2251 154.359 43.8357C153.389 44.4464 152.276 44.7517 151.019 44.7517C149.959 44.7517 149.025 44.5721 148.217 44.2129C147.409 43.8716 146.726 43.3867 146.17 42.7581C145.631 42.1116 145.218 41.3483 144.93 40.4683C144.661 39.5703 144.526 38.5735 144.526 37.478V12.3702C144.526 11.3465 144.652 10.4036 144.903 9.54154C145.173 8.66151 145.532 7.91618 145.981 7.30555C146.448 6.67695 146.987 6.19204 147.597 5.8508C148.208 5.49161 148.855 5.31201 149.537 5.31201C150.345 5.31201 151.028 5.46467 151.584 5.76999C152.141 6.05734 152.599 6.44348 152.958 6.92839C153.318 7.4133 153.596 7.97006 153.793 8.59865C154.009 9.22724 154.162 9.87379 154.251 10.5383C154.341 11.1849 154.395 11.8314 154.413 12.478C154.431 13.1066 154.44 13.6813 154.44 14.2021C154.44 15.5491 154.314 16.9679 154.063 18.4586C153.811 19.9313 153.488 21.386 153.093 22.8228C152.716 24.2596 152.294 25.6425 151.827 26.9715C151.378 28.2826 150.938 29.4499 150.507 30.4737C150.094 31.4974 149.717 32.3325 149.375 32.979C149.052 33.6256 148.828 34.0027 148.702 34.1105V37.3163C148.702 38.4298 148.935 39.3458 149.402 40.0642C149.869 40.7646 150.615 41.1148 151.638 41.1148C152.267 41.1148 152.851 40.9262 153.389 40.5491C153.946 40.154 154.431 39.6691 154.844 39.0943C155.275 38.5017 155.634 37.8641 155.922 37.1816C156.209 36.4812 156.416 35.8257 156.541 35.215Z" fill="#FF7A20"/>
<path d="M160.879 26.8907C161.076 26.5135 161.265 26.0106 161.444 25.3821C161.642 24.7355 161.821 24.0261 161.983 23.2538C162.163 22.4816 162.324 21.6734 162.468 20.8293C162.612 19.9851 162.737 19.159 162.845 18.3508C162.953 17.5426 163.034 16.7883 163.088 16.0879C163.159 15.3695 163.195 14.7589 163.195 14.256C163.195 12.4241 163.061 11.0861 162.791 10.242C162.522 9.3799 162.163 8.94887 161.714 8.94887C161.57 8.94887 161.444 9.0207 161.337 9.16438C161.229 9.30806 161.139 9.49664 161.067 9.73012C160.995 9.94563 160.941 10.1881 160.906 10.4575C160.888 10.7089 160.879 10.9424 160.879 11.1579V26.8907ZM168.718 35.215C168.826 34.6762 168.987 34.2901 169.203 34.0566C169.436 33.8052 169.679 33.6705 169.93 33.6525C170.2 33.6166 170.469 33.6795 170.738 33.8411C171.008 33.9848 171.241 34.1823 171.439 34.4338C171.636 34.6852 171.78 34.9726 171.87 35.2958C171.978 35.6012 171.996 35.9065 171.924 36.2118C171.672 36.9481 171.313 37.8102 170.846 38.798C170.379 39.7858 169.787 40.7197 169.068 41.5997C168.35 42.4798 167.506 43.2251 166.536 43.8357C165.566 44.4464 164.453 44.7517 163.195 44.7517C162.136 44.7517 161.202 44.5721 160.394 44.2129C159.585 43.8716 158.903 43.3867 158.346 42.7581C157.807 42.1116 157.394 41.3483 157.107 40.4683C156.838 39.5703 156.703 38.5735 156.703 37.478V12.3702C156.703 11.3465 156.829 10.4036 157.08 9.54154C157.349 8.66151 157.709 7.91618 158.158 7.30555C158.625 6.67695 159.163 6.19204 159.774 5.8508C160.385 5.49161 161.031 5.31201 161.714 5.31201C162.522 5.31201 163.204 5.46467 163.761 5.76999C164.318 6.05734 164.776 6.44348 165.135 6.92839C165.494 7.4133 165.773 7.97006 165.97 8.59865C166.186 9.22724 166.338 9.87379 166.428 10.5383C166.518 11.1849 166.572 11.8314 166.59 12.478C166.608 13.1066 166.617 13.6813 166.617 14.2021C166.617 15.5491 166.491 16.9679 166.24 18.4586C165.988 19.9313 165.665 21.386 165.27 22.8228C164.893 24.2596 164.471 25.6425 164.004 26.9715C163.555 28.2826 163.115 29.4499 162.684 30.4737C162.27 31.4974 161.893 32.3325 161.552 32.979C161.229 33.6256 161.004 34.0027 160.879 34.1105V37.3163C160.879 38.4298 161.112 39.3458 161.579 40.0642C162.046 40.7646 162.791 41.1148 163.815 41.1148C164.444 41.1148 165.027 40.9262 165.566 40.5491C166.123 40.154 166.608 39.6691 167.021 39.0943C167.452 38.5017 167.811 37.8641 168.098 37.1816C168.386 36.4812 168.592 35.8257 168.718 35.215Z" fill="#FF7A20"/>
<path d="M181.568 27.1601C181.568 28.1838 181.389 29.2344 181.029 30.312C180.688 31.3896 180.167 32.4133 179.467 33.3831C178.784 34.335 177.931 35.1971 176.908 35.9693C175.902 36.7237 174.735 37.2984 173.406 37.6935C173.585 38.1604 173.819 38.6094 174.106 39.0405C174.411 39.4535 174.77 39.8127 175.184 40.118C175.597 40.4234 176.073 40.6658 176.611 40.8454C177.168 41.025 177.806 41.1148 178.524 41.1148C179.602 41.1148 180.527 40.9173 181.299 40.5221C182.071 40.1091 182.718 39.5703 183.238 38.9058C183.777 38.2413 184.208 37.4959 184.532 36.6698C184.855 35.8436 185.097 35.0085 185.259 34.1644C185.385 33.5538 185.636 33.1497 186.013 32.9521C186.408 32.7366 186.803 32.6827 187.199 32.7905C187.612 32.8982 187.962 33.1317 188.249 33.4909C188.555 33.8321 188.68 34.2452 188.626 34.7301C188.555 35.2869 188.429 35.9244 188.249 36.6428C188.088 37.3612 187.836 38.0886 187.495 38.8249C187.154 39.5613 186.714 40.2887 186.175 41.0071C185.654 41.7075 185.008 42.3361 184.235 42.8928C183.463 43.4496 182.556 43.8986 181.514 44.2398C180.473 44.5811 179.278 44.7517 177.931 44.7517C176.674 44.7517 175.453 44.5002 174.268 43.9974C173.1 43.5124 172.059 42.812 171.143 41.8961C170.245 40.9622 169.517 39.8217 168.96 38.4747C168.422 37.1098 168.152 35.5652 168.152 33.8411C168.152 32.099 168.395 30.4826 168.88 28.992C169.365 27.4833 170.002 26.1813 170.792 25.0857C171.583 23.9902 172.481 23.1371 173.486 22.5265C174.492 21.8979 175.525 21.5836 176.584 21.5836C177.357 21.5836 178.048 21.7183 178.659 21.9877C179.287 22.2571 179.817 22.6432 180.248 23.1461C180.679 23.631 181.002 24.2147 181.218 24.8971C181.451 25.5796 181.568 26.3339 181.568 27.1601ZM172.678 33.6795C172.678 33.8411 172.687 34.0027 172.705 34.1644C172.723 34.326 172.732 34.4966 172.732 34.6762C173.414 34.353 174.034 33.9399 174.591 33.437C175.148 32.9341 175.624 32.3594 176.019 31.7129C176.414 31.0663 176.719 30.3659 176.935 29.6116C177.15 28.8393 177.258 28.0401 177.258 27.214C177.258 26.6033 177.15 26.1274 176.935 25.7862C176.737 25.4449 176.459 25.2743 176.099 25.2743C175.65 25.2743 175.246 25.427 174.887 25.7323C174.546 26.0376 174.241 26.4417 173.971 26.9446C173.72 27.4295 173.504 27.9862 173.325 28.6148C173.163 29.2254 173.028 29.8451 172.921 30.4737C172.813 31.1022 172.741 31.7039 172.705 32.2786C172.669 32.8354 172.66 33.3023 172.678 33.6795Z" fill="#FF7A20"/>
<path d="M185.259 24.8433C185.259 24.3224 185.214 23.9453 185.124 23.7118C185.052 23.4783 185.016 23.2628 185.016 23.0652C185.016 22.7958 185.16 22.5803 185.448 22.4187C185.735 22.2391 186.076 22.1493 186.471 22.1493C187.387 22.1493 188.106 22.3918 188.626 22.8767C189.165 23.3436 189.435 23.9094 189.435 24.5739V27.0523C189.812 26.28 190.216 25.5617 190.647 24.8971C191.096 24.2326 191.572 23.6579 192.075 23.173C192.596 22.6701 193.143 22.284 193.718 22.0146C194.311 21.7272 194.948 21.5836 195.631 21.5836C196.547 21.5836 197.301 21.7542 197.894 22.0954C198.486 22.4367 198.953 22.8767 199.295 23.4155C199.636 23.9543 199.869 24.5559 199.995 25.2204C200.139 25.8849 200.21 26.5315 200.21 27.1601V38.5825C200.21 38.7082 200.219 38.9147 200.237 39.2021C200.255 39.4715 200.309 39.7499 200.399 40.0372C200.489 40.3246 200.624 40.576 200.803 40.7915C201.001 41.0071 201.279 41.1148 201.638 41.1148C202.195 41.1148 202.671 40.9173 203.066 40.5221C203.479 40.127 203.829 39.6331 204.117 39.0405C204.422 38.4478 204.664 37.8102 204.844 37.1277C205.042 36.4273 205.203 35.7718 205.329 35.1612C205.437 34.5864 205.616 34.1734 205.868 33.9219C206.119 33.6525 206.38 33.5178 206.649 33.5178C206.865 33.5178 207.089 33.5897 207.323 33.7333C207.556 33.8591 207.763 34.0297 207.942 34.2452C208.14 34.4607 208.292 34.7032 208.4 34.9726C208.526 35.242 208.589 35.5114 208.589 35.7808C208.589 35.8167 208.589 35.8616 208.589 35.9155C208.589 35.9693 208.571 36.0502 208.535 36.1579C208.301 37.0739 207.978 38.0347 207.565 39.0405C207.17 40.0462 206.649 40.9711 206.002 41.8152C205.374 42.6594 204.62 43.3598 203.74 43.9165C202.86 44.4733 201.827 44.7517 200.641 44.7517C199.905 44.7517 199.25 44.608 198.675 44.3206C198.118 44.0512 197.633 43.6831 197.22 43.2161C196.825 42.7492 196.52 42.2014 196.304 41.5728C196.107 40.9442 196.008 40.2797 196.008 39.5793V28.3724C196.008 27.9413 195.999 27.5372 195.981 27.1601C195.963 26.7829 195.909 26.4507 195.819 26.1633C195.747 25.8759 195.631 25.6515 195.469 25.4898C195.325 25.3102 195.119 25.2204 194.849 25.2204C194.454 25.2204 193.969 25.4898 193.395 26.0286C192.82 26.5674 192.254 27.2678 191.698 28.1299C191.141 28.992 190.647 29.9708 190.216 31.0663C189.803 32.1439 189.542 33.2305 189.435 34.326V42.381C189.435 42.6504 189.426 42.9288 189.408 43.2161C189.408 43.4855 189.354 43.728 189.246 43.9435C189.156 44.177 189.004 44.3655 188.788 44.5092C188.59 44.6708 188.294 44.7517 187.899 44.7517C187.63 44.7517 187.333 44.7157 187.01 44.6439C186.705 44.59 186.417 44.4733 186.148 44.2937C185.897 44.1321 185.681 43.8896 185.501 43.5663C185.34 43.261 185.259 42.8479 185.259 42.3271V24.8433Z" fill="#FF7A20"/>
<path d="M200.21 17.2732C200.624 17.3091 201.082 17.3361 201.584 17.354C202.015 17.39 202.536 17.4169 203.147 17.4349C203.758 17.4349 204.44 17.4438 205.194 17.4618V8.11374C205.194 7.71862 205.158 7.40433 205.087 7.17085C205.033 6.93737 204.97 6.75777 204.898 6.63205C204.844 6.48838 204.781 6.38062 204.709 6.30878C204.656 6.21898 204.629 6.12918 204.629 6.03938C204.629 5.93162 204.682 5.84182 204.79 5.76999C204.898 5.69815 205.042 5.63529 205.221 5.58141C205.401 5.52753 205.589 5.49161 205.787 5.47365C206.002 5.43773 206.209 5.41977 206.407 5.41977C207.323 5.41977 208.041 5.66223 208.562 6.14714C209.101 6.6141 209.37 7.17983 209.37 7.84434V17.5157C211.058 17.5157 212.836 17.4977 214.704 17.4618C216.59 17.4259 218.476 17.363 220.361 17.2732C220.613 17.0038 220.81 16.905 220.954 16.9769C221.116 17.0487 221.214 17.2193 221.25 17.4887C221.304 17.7581 221.313 18.0904 221.277 18.4855C221.241 18.8806 221.17 19.2668 221.062 19.6439C220.954 20.0031 220.801 20.3174 220.604 20.5868C220.424 20.8562 220.218 20.9909 219.984 20.9909C217.775 21.0448 215.818 21.0807 214.111 21.0987C212.423 21.0987 210.843 21.0987 209.37 21.0987V38.5825C209.37 39.4805 209.541 40.127 209.882 40.5221C210.223 40.9173 210.681 41.1148 211.256 41.1148C211.812 41.1148 212.288 40.9173 212.684 40.5221C213.097 40.127 213.447 39.6331 213.734 39.0405C214.039 38.4478 214.282 37.8102 214.462 37.1277C214.659 36.4273 214.821 35.7718 214.946 35.1612C215.054 34.5864 215.234 34.1734 215.485 33.9219C215.737 33.6525 215.997 33.5178 216.266 33.5178C216.482 33.5178 216.707 33.5897 216.94 33.7333C217.173 33.8591 217.38 34.0297 217.56 34.2452C217.757 34.4607 217.91 34.7032 218.018 34.9726C218.143 35.242 218.206 35.5114 218.206 35.7808C218.206 35.8167 218.206 35.8616 218.206 35.9155C218.206 35.9693 218.188 36.0502 218.152 36.1579C217.919 37.0739 217.596 38.0347 217.182 39.0405C216.787 40.0462 216.266 40.9711 215.62 41.8152C214.991 42.6594 214.237 43.3598 213.357 43.9165C212.477 44.4733 211.444 44.7517 210.259 44.7517C209.523 44.7517 208.84 44.6349 208.212 44.4015C207.601 44.1859 207.071 43.8267 206.622 43.3239C206.173 42.839 205.823 42.2104 205.571 41.4381C205.32 40.6658 205.194 39.7319 205.194 38.6364V21.0987C204.584 21.0987 204.036 21.0987 203.551 21.0987C203.084 21.0807 202.689 21.0627 202.366 21.0448C201.988 21.0268 201.656 21.0089 201.369 20.9909C200.938 20.9909 200.561 20.8023 200.237 20.4252C199.896 20.03 199.663 19.599 199.537 19.1321C199.393 18.6651 199.375 18.243 199.483 17.8659C199.573 17.4708 199.815 17.2732 200.21 17.2732Z" fill="#FF7A20"/>
<g opacity="0.88">
<path d="M165.97 65.7182V50.6089H175.057V52.9923H168.46V56.8654H173.78V59.2489H168.46V63.3348H175.057V65.7182H165.97Z" fill="#864418"/>
<path d="M182.099 70.3787C180.652 70.3787 179.46 70.0241 178.524 69.3147C177.602 68.6053 177.07 67.6832 176.928 66.5482H179.226C179.637 67.7683 180.616 68.3783 182.163 68.3783C183 68.3783 183.688 68.1017 184.227 67.5484C184.78 67.0093 185.057 66.2432 185.057 65.2501V63.9945C184.716 64.4769 184.241 64.8741 183.631 65.1862C183.021 65.4983 182.361 65.6544 181.652 65.6544C180.219 65.6544 179.006 65.1366 178.013 64.1009C177.034 63.0511 176.545 61.7671 176.545 60.2491C176.545 58.7452 177.034 57.4755 178.013 56.4398C179.006 55.39 180.219 54.865 181.652 54.865C182.361 54.865 183.021 55.0211 183.631 55.3332C184.241 55.6312 184.716 56.0213 185.057 56.5037V55.0779H187.398V65.0585C187.398 66.8178 186.894 68.1443 185.887 69.0381C184.894 69.9318 183.631 70.3787 182.099 70.3787ZM179.822 62.59C180.432 63.2 181.184 63.505 182.078 63.505C182.971 63.505 183.723 63.2 184.333 62.59C184.943 61.9657 185.248 61.1854 185.248 60.2491C185.248 59.3127 184.943 58.5395 184.333 57.9295C183.723 57.3052 182.971 56.9931 182.078 56.9931C181.184 56.9931 180.432 57.3052 179.822 57.9295C179.212 58.5395 178.907 59.3127 178.907 60.2491C178.907 61.1854 179.212 61.9657 179.822 62.59Z" fill="#864418"/>
<path d="M195.358 70.3787C193.911 70.3787 192.719 70.0241 191.783 69.3147C190.86 68.6053 190.328 67.6832 190.187 66.5482H192.485C192.896 67.7683 193.875 68.3783 195.422 68.3783C196.259 68.3783 196.947 68.1017 197.486 67.5484C198.039 67.0093 198.316 66.2432 198.316 65.2501V63.9945C197.975 64.4769 197.5 64.8741 196.89 65.1862C196.28 65.4983 195.62 65.6544 194.911 65.6544C193.478 65.6544 192.265 65.1366 191.272 64.1009C190.293 63.0511 189.804 61.7671 189.804 60.2491C189.804 58.7452 190.293 57.4755 191.272 56.4398C192.265 55.39 193.478 54.865 194.911 54.865C195.62 54.865 196.28 55.0211 196.89 55.3332C197.5 55.6312 197.975 56.0213 198.316 56.5037V55.0779H200.657V65.0585C200.657 66.8178 200.153 68.1443 199.146 69.0381C198.153 69.9318 196.89 70.3787 195.358 70.3787ZM193.081 62.59C193.691 63.2 194.443 63.505 195.337 63.505C196.23 63.505 196.982 63.2 197.592 62.59C198.202 61.9657 198.507 61.1854 198.507 60.2491C198.507 59.3127 198.202 58.5395 197.592 57.9295C196.982 57.3052 196.23 56.9931 195.337 56.9931C194.443 56.9931 193.691 57.3052 193.081 57.9295C192.471 58.5395 192.166 59.3127 192.166 60.2491C192.166 61.1854 192.471 61.9657 193.081 62.59Z" fill="#864418"/>
<path d="M207.553 65.9311C206.29 65.9311 205.226 65.6189 204.361 64.9947C203.509 64.3705 203.055 63.5334 202.999 62.4836H205.425C205.595 63.5334 206.326 64.0583 207.617 64.0583C208.141 64.0583 208.56 63.9661 208.872 63.7817C209.184 63.5831 209.34 63.2993 209.34 62.9305C209.34 62.5616 209.22 62.2708 208.979 62.058C208.737 61.8451 208.333 61.6678 207.766 61.5259L206.02 61.0578C204.205 60.5754 203.297 59.5043 203.297 57.8444C203.297 56.9506 203.658 56.2341 204.382 55.695C205.105 55.1417 206.063 54.865 207.255 54.865C208.404 54.865 209.347 55.1559 210.085 55.7376C210.823 56.3192 211.234 57.0924 211.319 58.0572H208.979C208.752 57.1776 208.17 56.7378 207.234 56.7378C206.765 56.7378 206.389 56.8371 206.106 57.0357C205.822 57.2201 205.68 57.4826 205.68 57.8231C205.68 58.4331 206.155 58.8587 207.106 59.0999L208.893 59.5681C210.78 60.0505 211.724 61.1216 211.724 62.7815C211.724 63.7888 211.334 64.5691 210.553 65.1224C209.787 65.6615 208.787 65.9311 207.553 65.9311Z" fill="#864418"/>
</g>
<path fill-rule="evenodd" clip-rule="evenodd" d="M0.153192 49.1428C-1.81331 21.1291 15.3591 0 33.5069 0C53.0044 0 67.6448 26.2069 66.8507 49.1428C66.2596 66.1754 51.6547 80 33.5069 80C15.3591 80 1.34728 66.1438 0.153192 49.1428ZM6.36797 52.2975C7.89506 52.0965 10.2872 51.6808 12.5197 51.2512L12.5315 51.2453L20.3266 49.5409C30.563 47.1862 45.4517 43.5842 50.3286 34.6089C54.2911 27.33 50.1315 21.1823 48.5552 18.869C44.5847 13.0108 38.435 10.4335 31.6803 11.797C25.5108 13.0443 19.7729 19.332 17.0557 24.6522C13.9128 30.7921 12.6103 36.4197 12.6714 43.9941C10.2281 44.4808 7.15024 45.0443 5.44974 45.269L6.36797 52.2975ZM52.1118 59.5606C55.566 54.9872 56.6793 49.4739 57.3079 44.6778L57.4714 43.6355L49.9266 46.0138C49.363 49.3458 48.4389 52.6305 46.4409 55.2749C44.7759 57.4778 42.8192 59.1291 40.7798 60.0512C38.6123 61.0305 35.8872 61.4089 33.0951 61.1212C31.053 60.8585 29.0829 60.1948 27.298 59.1685C24.7882 57.7467 22.7802 55.5826 21.5502 52.9734L14.6261 54.8552C16.4147 59.2787 19.6419 62.9703 23.7867 65.334C26.4324 66.846 29.3531 67.8153 32.3778 68.1852C33.2347 68.2745 34.0956 68.3193 34.9571 68.3192C37.9704 68.348 40.9554 67.7354 43.7138 66.5222C46.831 65.1133 49.7335 62.7133 52.1118 59.5606ZM42.6828 22.8451C44.6729 25.779 45.6779 28.3249 44.1015 31.2175C40.866 37.1721 28.3064 40.4017 19.7744 42.3859C19.8966 36.7761 20.9784 32.5554 23.3705 27.8776C25.3803 23.9485 29.5636 19.4579 33.0867 18.7465C33.7856 18.602 34.4972 18.5274 35.2109 18.5239C38.2276 18.5239 40.736 19.9702 42.6828 22.8451Z" fill="#FF7A20"/>
</svg>
