<svg width="256" height="256" viewBox="0 0 256 256" fill="none" xmlns="http://www.w3.org/2000/svg">
<path d="M172.368 197.012C143.369 229.59 93.0283 232.93 59.9299 204.471C26.8314 176.012 23.5085 126.532 52.5079 93.9533C88.9823 52.9774 162.971 23.0704 196.07 51.5291C229.168 79.9879 209.176 155.661 172.368 197.012Z" fill="#AA82FF"/>
<path d="M64.3893 143.254C63.0453 143.254 61.7973 143.022 60.6453 142.558C59.4933 142.094 58.4853 141.446 57.6213 140.614C56.7733 139.766 56.1093 138.782 55.6293 137.662C55.1493 136.542 54.9093 135.326 54.9093 134.014C54.9093 132.702 55.1413 131.486 55.6053 130.366C56.0853 129.246 56.7493 128.27 57.5973 127.438C58.4613 126.606 59.4693 125.958 60.6213 125.494C61.7733 125.03 63.0293 124.798 64.3893 124.798C65.7493 124.798 67.0053 125.03 68.1573 125.494C69.3093 125.958 70.3093 126.606 71.1573 127.438C72.0213 128.27 72.6853 129.246 73.1493 130.366C73.6293 131.486 73.8693 132.702 73.8693 134.014C73.8693 135.326 73.6293 136.542 73.1493 137.662C72.6693 138.782 71.9973 139.766 71.1333 140.614C70.2853 141.446 69.2853 142.094 68.1333 142.558C66.9813 143.022 65.7333 143.254 64.3893 143.254ZM64.3893 139.894C65.4773 139.894 66.4533 139.646 67.3173 139.15C68.1973 138.638 68.8853 137.942 69.3813 137.062C69.8933 136.182 70.1493 135.166 70.1493 134.014C70.1493 132.862 69.8933 131.846 69.3813 130.966C68.8853 130.086 68.1973 129.398 67.3173 128.902C66.4533 128.406 65.4773 128.158 64.3893 128.158C63.3013 128.158 62.3173 128.406 61.4373 128.902C60.5733 129.398 59.8853 130.086 59.3733 130.966C58.8773 131.846 58.6293 132.862 58.6293 134.014C58.6293 135.166 58.8773 136.182 59.3733 137.062C59.8853 137.942 60.5733 138.638 61.4373 139.15C62.3173 139.646 63.3013 139.894 64.3893 139.894ZM75.9178 142.966V129.862H79.2778V131.83C79.6138 131.014 80.0858 130.462 80.6938 130.174C81.3178 129.87 82.0298 129.718 82.8298 129.718H84.1978V132.838H82.4698C81.5898 132.838 80.8778 133.11 80.3338 133.654C79.7898 134.182 79.5178 134.934 79.5178 135.91V142.966H75.9178ZM91.5963 143.254C90.3323 143.254 89.1963 142.95 88.1883 142.342C87.1803 141.734 86.3803 140.91 85.7883 139.87C85.2123 138.83 84.9243 137.678 84.9243 136.414C84.9243 135.134 85.2203 133.982 85.8123 132.958C86.4043 131.918 87.2043 131.094 88.2123 130.486C89.2203 129.878 90.3403 129.574 91.5723 129.574C93.1563 129.574 94.4123 130.038 95.3403 130.966V125.086H98.9403V142.966H95.5803V141.718C95.1163 142.214 94.5323 142.598 93.8283 142.87C93.1403 143.126 92.3963 143.254 91.5963 143.254ZM92.0283 140.014C93.0043 140.014 93.7963 139.686 94.4043 139.03C95.0283 138.358 95.3403 137.486 95.3403 136.414C95.3403 135.358 95.0283 134.494 94.4043 133.822C93.7963 133.15 93.0043 132.814 92.0283 132.814C91.0523 132.814 90.2443 133.158 89.6043 133.846C88.9643 134.518 88.6443 135.374 88.6443 136.414C88.6443 137.47 88.9643 138.334 89.6043 139.006C90.2443 139.678 91.0523 140.014 92.0283 140.014ZM107.491 143.254C106.115 143.254 104.907 142.95 103.867 142.342C102.843 141.718 102.043 140.886 101.467 139.846C100.907 138.806 100.627 137.654 100.627 136.39C100.627 135.078 100.915 133.91 101.491 132.886C102.083 131.862 102.875 131.054 103.867 130.462C104.875 129.87 106.003 129.574 107.251 129.574C108.483 129.574 109.587 129.862 110.563 130.438C111.539 131.014 112.315 131.79 112.891 132.766C113.467 133.726 113.755 134.814 113.755 136.03C113.755 136.286 113.739 136.542 113.707 136.798C113.691 137.038 113.651 137.246 113.587 137.422H104.371C104.483 138.238 104.819 138.894 105.379 139.39C105.939 139.886 106.659 140.134 107.539 140.134C108.179 140.134 108.723 140.006 109.171 139.75C109.635 139.494 109.995 139.142 110.251 138.694L113.131 140.062C112.731 141.022 112.027 141.798 111.019 142.39C110.011 142.966 108.835 143.254 107.491 143.254ZM107.251 132.454C106.547 132.454 105.947 132.654 105.451 133.054C104.955 133.454 104.619 134.03 104.443 134.782H109.939C109.875 134.078 109.595 133.518 109.099 133.102C108.619 132.67 108.003 132.454 107.251 132.454ZM115.199 142.966V129.862H118.559V131.83C118.895 131.014 119.367 130.462 119.975 130.174C120.599 129.87 121.311 129.718 122.111 129.718H123.479V132.838H121.751C120.871 132.838 120.159 133.11 119.615 133.654C119.071 134.182 118.799 134.934 118.799 135.91V142.966H115.199ZM129.238 142.966V129.862H132.598V131.47C132.934 130.83 133.422 130.358 134.062 130.054C134.702 129.734 135.438 129.574 136.27 129.574C137.262 129.574 138.126 129.782 138.862 130.198C139.614 130.614 140.198 131.198 140.614 131.95C141.03 132.686 141.238 133.55 141.238 134.542V142.966H137.638V135.31C137.638 134.558 137.414 133.958 136.966 133.51C136.518 133.046 135.942 132.814 135.238 132.814C134.534 132.814 133.958 133.046 133.51 133.51C133.062 133.958 132.838 134.558 132.838 135.31V142.966H129.238ZM149.682 143.254C148.386 143.254 147.202 142.958 146.13 142.366C145.074 141.774 144.234 140.966 143.61 139.942C142.986 138.902 142.674 137.726 142.674 136.414C142.674 135.086 142.986 133.91 143.61 132.886C144.234 131.862 145.074 131.054 146.13 130.462C147.202 129.87 148.386 129.574 149.682 129.574C150.978 129.574 152.154 129.87 153.21 130.462C154.282 131.054 155.13 131.862 155.754 132.886C156.378 133.91 156.69 135.086 156.69 136.414C156.69 137.726 156.378 138.902 155.754 139.942C155.13 140.966 154.282 141.774 153.21 142.366C152.154 142.958 150.978 143.254 149.682 143.254ZM149.682 140.014C150.674 140.014 151.466 139.678 152.058 139.006C152.666 138.334 152.97 137.47 152.97 136.414C152.97 135.374 152.666 134.518 152.058 133.846C151.466 133.158 150.674 132.814 149.682 132.814C148.706 132.814 147.914 133.158 147.306 133.846C146.698 134.518 146.394 135.374 146.394 136.414C146.394 137.47 146.698 138.334 147.306 139.006C147.914 139.678 148.706 140.014 149.682 140.014ZM161.449 142.966L156.937 129.862H160.657L163.081 137.686L165.625 129.862H169.633L172.177 137.686L174.577 129.862H178.321L173.809 142.966H170.641L167.641 134.23L164.617 142.966H161.449Z" fill="black"/>
</svg>
