<svg width="92" height="92" viewBox="0 0 92 92" fill="none" xmlns="http://www.w3.org/2000/svg">
<path d="M92 46C92 52.0541 88.1604 57.3018 85.9878 62.5633C83.7196 68.016 82.6401 74.4254 78.5273 78.5253C74.4144 82.6387 68.0196 83.7184 62.5677 85.9869C57.307 88.1735 52.06 92 46.0068 92C39.9537 92 34.7067 88.1598 29.446 85.9869C23.9941 83.7184 17.5856 82.6387 13.4864 78.5253C9.37353 74.4118 8.29407 68.016 6.02584 62.5633C3.8396 57.3018 0 52.0541 0 46C0 39.9459 3.8396 34.6982 6.01218 29.4367C8.28041 23.984 9.35987 17.5746 13.4727 13.4747C17.5856 9.36126 23.9804 8.28164 29.4323 6.01307C34.693 3.8265 39.94 0 45.9932 0C52.0463 0 57.2933 3.84017 62.554 6.01307C68.0059 8.28164 74.4144 9.36126 78.5136 13.4747C82.6265 17.5882 83.7059 23.984 85.9742 29.4367C88.1741 34.6982 92 39.9459 92 46Z" fill="#FA8B40"/>
<mask id="mask0_316_3669" style="mask-type:alpha" maskUnits="userSpaceOnUse" x="20" y="20" width="52" height="52">
<rect x="20.4443" y="20.4446" width="51.1111" height="51.1111" fill="#C4C4C4"/>
</mask>
<g mask="url(#mask0_316_3669)">
<path d="M32.8486 63.7829C31.0384 63.7829 29.4944 63.1614 28.2167 61.9186C26.9389 60.6766 26.2646 59.1858 26.1939 57.4464H21.7754V28.1648H56.9667V36.5764H62.6106L70.2236 46.6926V57.4464H65.8587C65.7872 59.1858 65.1125 60.6766 63.8347 61.9186C62.5569 63.1614 61.013 63.7829 59.2028 63.7829C57.3577 63.7829 55.7962 63.1614 54.5184 61.9186C53.2407 60.6766 52.566 59.1858 52.4944 57.4464H39.5046C39.433 59.1858 38.7583 60.6766 37.4806 61.9186C36.2028 63.1614 34.6588 63.7829 32.8486 63.7829ZM32.8486 59.8422C33.6298 59.8422 34.2865 59.5675 34.8189 59.018C35.3514 58.4677 35.6176 57.8199 35.6176 57.0745C35.6176 56.2934 35.3514 55.6366 34.8189 55.1042C34.2865 54.5718 33.6298 54.3056 32.8486 54.3056C32.0683 54.3056 31.412 54.5718 30.8796 55.1042C30.3471 55.6366 30.0809 56.2934 30.0809 57.0745C30.0809 57.8199 30.3471 58.4677 30.8796 59.018C31.412 59.5675 32.0683 59.8422 32.8486 59.8422ZM26.5134 52.762H28.0046C28.5719 52.0166 29.2725 51.4221 30.1065 50.9782C30.9413 50.5344 31.8379 50.3125 32.7962 50.3125C33.7895 50.3125 34.7031 50.5344 35.5371 50.9782C36.3719 51.4221 37.0908 52.0166 37.6939 52.762H52.2823V32.9028H26.5134V52.762ZM59.1504 59.8422C59.9307 59.8422 60.587 59.5675 61.1194 59.018C61.6519 58.4677 61.9181 57.8199 61.9181 57.0745C61.9181 56.2934 61.6519 55.6366 61.1194 55.1042C60.587 54.5718 59.9307 54.3056 59.1504 54.3056C58.405 54.3056 57.7572 54.5718 57.2069 55.1042C56.6566 55.6366 56.3814 56.2934 56.3814 57.0745C56.3814 57.8199 56.6566 58.4677 57.2069 59.018C57.7572 59.5675 58.405 59.8422 59.1504 59.8422ZM56.9667 48.6616H65.8051L60.2684 41.262H56.9667V48.6616Z" fill="black"/>
</g>
</svg>
