<svg width="537" height="537" viewBox="0 0 537 537" fill="none" xmlns="http://www.w3.org/2000/svg">
<path d="M299.042 0.378483L292.743 123.078C290.395 168.823 341.719 197.226 379.232 170.941L479.851 100.438L388.635 182.746C354.628 213.432 370.836 269.808 415.948 277.747L536.949 299.043L414.25 292.743C368.505 290.395 340.102 341.72 366.387 379.232L436.89 479.851L354.582 388.635C323.896 354.628 267.52 370.836 259.581 415.948L238.285 536.95L244.585 414.25C246.933 368.505 195.608 340.102 158.096 366.387L57.4765 436.89L148.693 354.582C182.7 323.897 166.492 267.52 121.38 259.581L0.378353 238.286L123.078 244.585C168.823 246.933 197.226 195.609 170.941 158.096L100.438 57.4767L182.746 148.693C213.431 182.7 269.808 166.492 277.747 121.38L299.042 0.378483Z" fill="#FFB4A9"/>
</svg>
