<svg width="92" height="92" viewBox="0 0 92 92" fill="none" xmlns="http://www.w3.org/2000/svg">
<path d="M92 46C92 52.0541 88.1604 57.3018 85.9878 62.5633C83.7196 68.016 82.6401 74.4254 78.5273 78.5253C74.4144 82.6387 68.0196 83.7184 62.5677 85.9869C57.307 88.1735 52.06 92 46.0068 92C39.9537 92 34.7067 88.1598 29.446 85.9869C23.9941 83.7184 17.5856 82.6387 13.4864 78.5253C9.37353 74.4118 8.29407 68.016 6.02584 62.5633C3.8396 57.3018 0 52.0541 0 46C0 39.9459 3.8396 34.6982 6.01218 29.4367C8.28041 23.984 9.35987 17.5746 13.4727 13.4747C17.5856 9.36126 23.9804 8.28164 29.4323 6.01307C34.693 3.8265 39.94 0 45.9932 0C52.0463 0 57.2933 3.84017 62.554 6.01307C68.0059 8.28164 74.4144 9.36126 78.5136 13.4747C82.6265 17.5882 83.7059 23.984 85.9742 29.4367C88.1741 34.6982 92 39.9459 92 46Z" fill="#FA8B40"/>
<mask id="mask0_316_3700" style="mask-type:alpha" maskUnits="userSpaceOnUse" x="20" y="20" width="52" height="52">
<rect x="20.4443" y="20.4443" width="51.1111" height="51.1111" fill="#C4C4C4"/>
</mask>
<g mask="url(#mask0_316_3700)">
<path d="M42.8591 67.1893V61.599H62.4513V44.243C62.4513 42.1133 61.9632 40.0812 60.9869 38.1467C60.0107 36.2121 58.7419 34.5263 57.1804 33.0892C55.619 31.6513 53.8621 30.5154 51.9096 29.6814C49.9572 28.8474 48.0052 28.4305 46.0536 28.4305C44.0304 28.4305 42.0426 28.8474 40.0902 29.6814C38.1377 30.5154 36.3808 31.6513 34.8193 33.0892C33.2579 34.5263 31.998 36.2121 31.0397 38.1467C30.0813 40.0812 29.6022 42.1133 29.6022 44.243V59.2569H21.8818V44.9355H24.0119V43.5504C24.1533 40.534 24.8629 37.757 26.1407 35.2193C27.4184 32.6808 29.0689 30.489 31.0921 28.6439C33.1152 26.7979 35.4224 25.3514 38.0138 24.3045C40.6051 23.2576 43.2672 22.7341 45.9999 22.7341C48.7326 22.7341 51.3947 23.2486 53.986 24.2777C56.5773 25.3067 58.8846 26.7353 60.9077 28.5634C62.9309 30.3914 64.5813 32.5743 65.8591 35.112C67.1369 37.6496 67.8465 40.4624 67.9879 43.5504V44.9355H70.1179V59.2569H67.9879V67.1893H42.8591ZM39.611 50.2587C39.0079 50.2587 38.5019 50.0547 38.093 49.6467C37.685 49.2386 37.4809 48.7331 37.4809 48.13C37.4809 47.4911 37.685 46.9761 38.093 46.5851C38.5019 46.195 39.0079 45.9999 39.611 45.9999C40.2499 45.9999 40.7644 46.195 41.1546 46.5851C41.5456 46.9761 41.7411 47.4911 41.7411 48.13C41.7411 48.7331 41.5456 49.2386 41.1546 49.6467C40.7644 50.0547 40.2499 50.2587 39.611 50.2587ZM52.3888 50.2587C51.7857 50.2587 51.2797 50.0547 50.8708 49.6467C50.4627 49.2386 50.2587 48.7331 50.2587 48.13C50.2587 47.4911 50.4627 46.9761 50.8708 46.5851C51.2797 46.195 51.7857 45.9999 52.3888 45.9999C53.0277 45.9999 53.5422 46.195 53.9323 46.5851C54.3233 46.9761 54.5188 47.4911 54.5188 48.13C54.5188 48.7331 54.3233 49.2386 53.9323 49.6467C53.5422 50.0547 53.0277 50.2587 52.3888 50.2587ZM32.3174 45.0416C32.1752 43.2314 32.4857 41.4834 33.2489 39.7976C34.0122 38.1118 35.0502 36.6389 36.3629 35.379C37.6764 34.1183 39.1851 33.0978 40.8888 32.3175C42.5925 31.5363 44.3315 31.1457 46.1059 31.1457C49.4069 31.1457 52.353 32.2549 54.9443 34.4731C57.5357 36.6913 58.9732 39.3802 59.2568 42.5397C55.8494 42.5039 52.7794 41.6785 50.0466 40.0634C47.313 38.4482 45.2009 36.3097 43.7101 33.6476C43.0363 36.3454 41.6431 38.7238 39.5305 40.7827C37.4188 42.8408 35.0144 44.2604 32.3174 45.0416Z" fill="black"/>
</g>
</svg>
