<svg width="249" height="243" viewBox="0 0 249 243" fill="none" xmlns="http://www.w3.org/2000/svg">
<path d="M85.921 242.372C66.5137 228.201 49.4121 211.318 35.7031 192.796C21.994 174.274 11.9773 154.517 6.28954 134.783C0.601774 115.048 -0.632684 95.7666 2.66466 78.1636C5.962 60.5606 13.719 45.021 25.4427 32.5325C37.1664 20.0439 52.6004 10.8796 70.7638 5.62183C88.9272 0.364076 109.423 -0.872107 130.948 1.99185C152.473 4.85581 174.557 11.7573 195.797 22.2576C217.037 32.758 231.625 37.7854 248.98 54.1428L204.909 55.997L210.342 86.3494L170.819 77.9597L195.044 116.155L145.802 105.4L169.864 144.859L126.298 124.823L127.459 152.419L96.1933 126.09L110.848 175.736L77.557 167.084L95.9661 210.289L73.0817 203.958L85.921 242.372Z" fill="url(#paint0_linear_348_3387)"/>
<defs>
<linearGradient id="paint0_linear_348_3387" x1="81.2881" y1="9.72762" x2="74.4161" y2="218.176" gradientUnits="userSpaceOnUse">
<stop stop-color="white"/>
<stop offset="1" stop-color="#EEEEEE"/>
</linearGradient>
</defs>
</svg>
