<svg width="33" height="33" viewBox="0 0 33 33" fill="none" xmlns="http://www.w3.org/2000/svg">
<path d="M30.4596 7.58459C29.4416 8.03743 28.3622 8.33483 27.2569 8.46695C28.4219 7.7662 29.2938 6.66336 29.7102 5.36394C28.6169 6.01833 27.4182 6.47694 26.1689 6.72502C25.3297 5.82198 24.2174 5.22308 23.0048 5.02143C21.7923 4.81978 20.5475 5.02667 19.4639 5.60994C18.3803 6.19321 17.5187 7.12019 17.013 8.24675C16.5073 9.37332 16.3859 10.6364 16.6676 11.8395C14.4504 11.7277 12.2813 11.1483 10.3013 10.1387C8.32122 9.12913 6.5744 7.71205 5.17423 5.97944C4.67861 6.83559 4.41817 7.80884 4.41956 8.79951C4.41956 10.7439 5.40356 12.4617 6.89956 13.4674C6.01424 13.4394 5.1484 13.199 4.37423 12.7661V12.8358C4.37449 14.1308 4.82005 15.3859 5.63536 16.3882C6.45066 17.3905 7.58554 18.0784 8.84756 18.3352C8.02571 18.5592 7.16397 18.5922 6.32756 18.4317C6.68338 19.5464 7.3769 20.5212 8.31102 21.2198C9.24513 21.9183 10.3731 22.3055 11.5369 22.3273C10.3802 23.2409 9.0558 23.9163 7.6394 24.3148C6.22301 24.7133 4.7424 24.8272 3.28223 24.6498C5.83116 26.2985 8.79836 27.1737 11.8289 27.1709C22.0862 27.1709 27.6956 18.6248 27.6956 11.2133C27.6956 10.9719 27.6889 10.7278 27.6782 10.4891C28.77 9.69551 29.7124 8.71238 30.4609 7.58593L30.4596 7.58459Z" fill="white"/>
</svg>
