<svg width="33" height="32" viewBox="0 0 33 32" fill="none" xmlns="http://www.w3.org/2000/svg">
<path d="M3.22019 29.3337L5.02286 22.7097C3.83505 20.6735 3.21099 18.3576 3.21486 16.0003C3.21486 8.63633 9.1842 2.66699 16.5482 2.66699C23.9122 2.66699 29.8815 8.63633 29.8815 16.0003C29.8815 23.3643 23.9122 29.3337 16.5482 29.3337C14.1919 29.3375 11.8771 28.7139 9.84153 27.527L3.22019 29.3337ZM11.7362 9.74433C11.564 9.75502 11.3958 9.80037 11.2415 9.87766C11.0969 9.95957 10.9649 10.062 10.8495 10.1817C10.6895 10.3323 10.5989 10.463 10.5015 10.5897C10.0087 11.231 9.74367 12.0182 9.7482 12.827C9.75086 13.4803 9.92153 14.1163 10.1882 14.711C10.7335 15.9137 11.6309 17.187 12.8162 18.367C13.1015 18.651 13.3802 18.9363 13.6802 19.2017C15.1514 20.4969 16.9045 21.431 18.8002 21.9297L19.5589 22.0457C19.8055 22.059 20.0522 22.0403 20.3002 22.0283C20.6885 22.0083 21.0677 21.9031 21.4109 21.7203C21.6322 21.603 21.7362 21.5443 21.9215 21.427C21.9215 21.427 21.9789 21.3897 22.0882 21.307C22.2682 21.1737 22.3789 21.079 22.5282 20.923C22.6389 20.8083 22.7349 20.6737 22.8082 20.5203C22.9122 20.303 23.0162 19.8883 23.0589 19.543C23.0909 19.279 23.0815 19.135 23.0775 19.0457C23.0722 18.903 22.9535 18.755 22.8242 18.6923L22.0482 18.3443C22.0482 18.3443 20.8882 17.839 20.1802 17.5163C20.1055 17.4838 20.0255 17.4653 19.9442 17.4617C19.853 17.4523 19.7608 17.4626 19.6739 17.4918C19.5869 17.521 19.5073 17.5684 19.4402 17.631V17.6283C19.4335 17.6283 19.3442 17.7043 18.3802 18.8723C18.3249 18.9467 18.2487 19.0029 18.1613 19.0337C18.0739 19.0646 17.9793 19.0688 17.8895 19.0457C17.8027 19.0224 17.7175 18.993 17.6349 18.9577C17.4695 18.8883 17.4122 18.8617 17.2989 18.8123L17.2922 18.8097C16.5294 18.4766 15.8232 18.0268 15.1989 17.4763C15.0309 17.3297 14.8749 17.1697 14.7149 17.015C14.1903 16.5126 13.7331 15.9443 13.3549 15.3243L13.2762 15.1977C13.2197 15.1125 13.174 15.0207 13.1402 14.9243C13.0895 14.7283 13.2215 14.571 13.2215 14.571C13.2215 14.571 13.5455 14.2163 13.6962 14.0243C13.8216 13.8648 13.9387 13.6988 14.0469 13.527C14.2042 13.2737 14.2535 13.0137 14.1709 12.8123C13.7975 11.9003 13.4109 10.9923 13.0135 10.091C12.9349 9.91233 12.7015 9.78433 12.4895 9.75899C12.4175 9.75099 12.3455 9.74299 12.2735 9.73766C12.0945 9.72876 11.915 9.73054 11.7362 9.74299V9.74433Z" fill="white"/>
</svg>
